<svg xmlns="http://www.w3.org/2000/svg" viewBox="0 0 100 100" width="100" height="100">
    <defs>
        <linearGradient id="ccc-grad" x1="0%" y1="0%" x2="100%" y2="100%">
            <stop offset="0%" stop-color="#3B82F6" />
            <stop offset="100%" stop-color="#1D4ED8" />
        </linearGradient>
    </defs>
    <path d="M 50,8 L 88,30 L 76,82 L 50,94 L 24,82 L 12,30 Z" fill="#0A0A0C" stroke="url(#ccc-grad)" stroke-width="2.5" />
    <path d="M 42,62 C 42,62 38,50 44,40 C 50,30 60,32 58,22 C 58,22 52,20 48,24 C 44,28 44,34 40,36 C 36,38 32,38 32,44 C 32,48 36,52 38,54 C 38,54 36,62 42,62 Z" fill="#60A5FA" />
    <circle cx="48" cy="30" r="1.5" fill="#0A0A0C" />
    <path d="M 34,68 L 66,68 L 62,62 L 38,62 Z" fill="#3B82F6" />
    <text x="50" y="80" font-family="'Inter', sans-serif" font-size="9" font-weight="bold" fill="#E2E8F0" text-anchor="middle" letter-spacing="1">CHARLOTTE</text>
    <text x="50" y="88" font-family="'Inter', sans-serif" font-size="7" font-weight="600" fill="#3B82F6" text-anchor="middle" letter-spacing="0.5">CHESS Center</text>
</svg>
